<svg id="Laag_1" data-name="Laag 1" xmlns="http://www.w3.org/2000/svg" viewBox="0 0 1536 1536"><defs><style>.cls-1{fill:#d6d7b2;}.cls-2{fill:#24618e;}.cls-3{fill:#fff;}.cls-4{font-size:364.19px;fill:#777c00;font-family:RijksoverheidSansWebText-Bold, RijksoverheidSansWebText;font-weight:700;}</style></defs><rect class="cls-1" width="1536" height="1536"/><polyline class="cls-2" points="428.73 1.54 428.73 1105.92 1115.71 1105.92 1115.71 1.54"/><path class="cls-3" d="M784.16,793.88H772.22V760.76h11.94Zm53.85-146H826.07V614.74H838ZM616.84,590.74c-.91,0-7.09,0-7.09,1.3s2.88.62,7.09,1.33c9.55,1.63,13.32,6.44,20,6.44,6.09,0,12.31-4.13,9.89-12.94-.4-1.48-1.26-1.13-1.46-.13-.93,3.93-5.76,6.19-10.86,6.19C628.13,592.93,626.78,590.74,616.84,590.74Zm-65.77,33.1c1,1.46,12.32,16.08-5,21.67-.76.25-1,1,.13,1.49,12.78,5.33,19-4.48,19-4.48,6.43,14.71-3.43,22.87-3.43,22.87,1.39,2.65,7.5,7.08,16.77,9.15,3.51-1.87,8.45-5.48,10.51-11,0,0,2.5,6.43.23,12.56,26.1,2.37,35.33-18.5,55.44-14.75.58.11.86-.25.86-.87,0-12.87-7.89-36.39-32.78-41.16s-18.14-15-18.14-15c10.46-.48,16.51,4.07,16.51,4.07,1.91-3.13-.79-6.51-.79-6.51,1-1.21,1.56-5.47,1.56-5.47-11.79,0-14.88-2.54-14.88-2.54-1.81-7,3.05-16.88,20.55-6.3,4.37-3.9,4-9.84,4-9.84a4.76,4.76,0,0,0,2.14-3.58c0-2.91-14-10.76-17.59-11.69-.88-4.24-6.3-10.36-22.76-8.15-7.78,1-13.4-1.08-10.78-5.61.45-.77-.94-.91-1.67-.17-1.81,1.81-4.29,6.89,2.52,10.31a14.8,14.8,0,0,1,8.06,12.49c.13,1.6-1.8,1.74-2.22.14-3.48-12.78-20.94-15.53-31.28-8.74.61,6.85,8,11.36,12,11.36,2.32,0,5.53-2.31,5.53-5.49,0-1.55.79-1.35,1.25-.15,1.71,4.55-5,13.95-15,8.23-10.17,10.18-6.11,22.72-5.09,27.34,1.82,8.31-2.24,16.35-9.72,12.6-.39-.18-.77-.33-.77.57C536.23,622.42,543,628.32,551.07,623.84Zm56-51.3c-4.76,5.3-12.49,4.08-14.35-4.66C602.52,567.37,606.71,568.35,607.11,572.54ZM910,592.93c-5.1,0-9.92-2.26-10.85-6.19-.21-1-1.07-1.35-1.46.13-2.42,8.81,3.8,12.94,9.89,12.94,6.71,0,10.47-4.81,20-6.44,4.21-.71,7.09-.06,7.09-1.33s-6.19-1.3-7.09-1.3C917.65,590.74,916.3,592.93,910,592.93Zm98.21,24.27c0-.9-.39-.75-.76-.57-7.48,3.75-11.54-4.29-9.72-12.6,1-4.62,5.08-17.16-5.1-27.34-10,5.72-16.73-3.68-15-8.23.47-1.2,1.25-1.4,1.25.15,0,3.18,3.21,5.49,5.53,5.49,4,0,11.39-4.51,12-11.36-10.34-6.79-27.8-4-31.28,8.74-.43,1.6-2.36,1.46-2.23-.14a14.82,14.82,0,0,1,8.06-12.49c6.81-3.42,4.33-8.5,2.53-10.31-.74-.74-2.13-.6-1.68.17,2.63,4.53-3,6.57-10.77,5.61-16.46-2.21-21.89,3.91-22.76,8.15-3.6.93-17.59,8.78-17.59,11.69a4.76,4.76,0,0,0,2.14,3.58s-.33,5.94,4,9.84c17.49-10.58,22.35-.69,20.55,6.3,0,0-3.09,2.53-14.89,2.54,0,0,.56,4.26,1.56,5.47,0,0-2.69,3.38-.78,6.51,0,0,6.05-4.55,16.51-4.07,0,0,6.68,10.19-18.15,15s-32.77,28.29-32.77,41.16c0,.62.27,1,.85.87,20.12-3.75,29.34,17.12,55.45,14.75-2.27-6.13.23-12.56.23-12.56,2.06,5.53,7,9.14,10.51,11,9.26-2.07,15.37-6.5,16.76-9.15,0,0-9.85-8.16-3.42-22.87,0,0,6.19,9.81,19,4.48,1.15-.49.88-1.24.13-1.49-17.32-5.59-6.05-20.21-5-21.67C1001.4,628.32,1008.2,622.42,1008.2,617.2Zm-56.52-49.32c-1.87,8.74-9.6,10-14.35,4.66C937.72,568.35,941.92,567.37,951.68,567.88Zm-184-146.63a9.46,9.46,0,0,0,1.7,5.21c1.54,2.18,1.31,3.38.58,4.11s-1.93,1-4.13-.56a9.26,9.26,0,0,0-5.19-1.71c-3.77,0-5.64,2.47-5.64,4.59s1.87,4.58,5.64,4.58a9.26,9.26,0,0,0,5.19-1.71c2.2-1.53,3.41-1.29,4.13-.56s-.34,8.28-1.19,14.23c-6.23,1.31-9.24,6.3-9.24,9.22,0,7.5,8,11.83,12.74,14.34,4.71-2.51,12.73-6.84,12.73-14.34,0-2.92-3-7.91-9.24-9.22-.85-5.95-1.91-13.52-1.19-14.23s1.93-1,4.13.56a9.26,9.26,0,0,0,5.19,1.71c3.77,0,5.64-2.47,5.64-4.58s-1.87-4.59-5.64-4.59a9.26,9.26,0,0,0-5.19,1.71c-2.2,1.53-3.41,1.29-4.13.56s-1-1.93.58-4.11a9.46,9.46,0,0,0,1.71-5.21c0-3.77-2.48-5.64-4.59-5.64S767.63,417.48,767.63,421.25ZM772.22,477a9.14,9.14,0,1,0,9.14,9.14A9.14,9.14,0,0,0,772.22,477Zm0,88c36.62,0,57.28,7,57.28,7,.2-18.5.08-28.82,10.69-27.28-5.8-15.54,19.19-21.64,19.19-41.9,0-13.35-9.44-14.86-12.23-14.86-8.29,0-7,5.39-14,5.39-.88,0-1.79-.22-1.79.42,0,2.33,2,6.32,5.23,6.32,4.33,0,4.42-4.34,7.64-4.34,1.39,0,3.39,1.13,3.39,5.57,0,8.61-5.64,18.17-12.31,25.56a7.49,7.49,0,0,0-6.1-3.42c-3.95,0-7.41,4.12-7.41,9.19a11.29,11.29,0,0,0,1,4.83,12.83,12.83,0,0,1-5.68,1.95c-3,0-7.54-1.22-7.54-7.81,0-14.68,19.68-27.6,19.68-46.21,0-8.88-5.93-17.73-18.33-17.73-13.3,0-10.82,12.14-22.33,12.14-.53,0-.95.17-.95.64,0,.76,2,7.48,7.95,7.48,6.37,0,8.16-11,13.8-11,2.11,0,5.26,1.24,5.26,8.7,0,5.81-2.88,15.18-7,24.18a8.25,8.25,0,0,0-5.8-2.59c-4.93,0-8.47,4.77-8.47,10.47A12.89,12.89,0,0,0,797.2,527c-2.91,3.72-5.87,6.74-9.9,6.74-7.95,0-11.46-4.51-11.46-9.43,0-5.32,9.71-7.25,9.71-15.55,0-5.64-3.67-8.83-7.21-8.83-3.79,0-5.74,2.52-6.12,2.52s-2.34-2.52-6.14-2.52c-3.53,0-7.2,3.19-7.2,8.83,0,8.3,9.71,10.23,9.71,15.55,0,4.92-3.51,9.43-11.45,9.43-4,0-7-3-9.91-6.74a12.89,12.89,0,0,0,3.87-9.37c0-5.7-3.54-10.47-8.47-10.47a8.25,8.25,0,0,0-5.8,2.59c-4.13-9-7-18.37-7-24.18,0-7.46,3.15-8.7,5.26-8.7,5.63,0,7.42,11,13.8,11,6,0,7.94-6.72,7.94-7.48,0-.47-.42-.64-1-.64-11.51,0-9-12.14-22.32-12.14-12.4,0-18.33,8.85-18.33,17.73,0,18.61,19.68,31.53,19.68,46.21,0,6.59-4.54,7.81-7.54,7.81a12.86,12.86,0,0,1-5.69-1.95,11.28,11.28,0,0,0,1-4.83c0-5.07-3.45-9.19-7.4-9.19a7.49,7.49,0,0,0-6.1,3.42c-6.67-7.39-12.3-17-12.3-25.56,0-4.44,2-5.57,3.38-5.57,3.23,0,3.32,4.34,7.65,4.34,3.23,0,5.22-4,5.22-6.32,0-.64-.9-.42-1.78-.42-7.06,0-5.75-5.39-14-5.39-2.8,0-12.23,1.51-12.23,14.86,0,20.26,25,26.36,19.19,41.9,10.61-1.54,10.48,8.78,10.68,27.28C714.93,572,735.59,565,772.22,565Zm-67.15,27.32c-10,2.19-17.12,4.24-20.33,5.23.17-4.41,1.84-8.49,5.76-9.4a.61.61,0,0,0,.17-1.11c-8.89-5.9-13.65,5.41-13.78,5.77-3.15-.23-7.95.75-7.95,5,0,12.72-29.11,19.79-35.85,20.83,11.88,4.58,16.84,19.57,16.84,19.57,8.62-8.63,18.72-16.24,20.94-16.24s3.17,2.87,3.35,4.59c0,.56.58.74.94.25,4.51-6.73,2.35-8.27,2-10.25-.29-1.56.17-7.46,6.76-6.77V694.7l-3.39.67c-1.56.27-14-10.29-28.19-20.12s-21.86-4-38.08,4.83c-21.21,11.49-42.67,1.07-42.67,1.07C553.27,694.22,547.05,732,547.05,732a42.42,42.42,0,0,1-15.41,3.2c-14,0-16.54-8.44-16.54-13.51,0-21.55,27-30.8,27-52.05,0-5.15-2.36-26.12-28.31-26.12l-23.21,0c-9.71,0-12.14-7-13.49-9.66-.51-1-1.51-.44-1.13.38.74,1.78-1.12,4.49-1.12,9.88,0,8.63,5.07,13.82,14.51,13.82a22.84,22.84,0,0,0,9.64-2c.88-.51,1.34.33.93.8-4.11,4.81-4.44,13.8-2.75,16,.4.52.91.38,1,0,2.28-9.12,10.82-17.73,22.32-17.73,14.07,0,14,12,14,14.85,0,17.3-30.38,30-30.38,53.76,0,24.12,25.48,29.29,40.24,25.47-.86,24.14-28.5,32.37-29.33,15.09-.07-.81-.66-1-1.12.08-3.49,8.53-2.11,16,8.65,18.42.73.18.38.58-.29,1-10.65,6.77-4.88,33.39-4.35,41.22.8,11.28-10.42,9.94-11.34,9.61-.47-.18-.91,0-.2.94,7.95,9.76,17.78.84,17.78.84,7.43,2.33,2.83,8.67-2.13,12-.77.53-.71,1,.13,1.09,1.11.08,12.61,1,14.66-8.12,5.09,6.08,12.57,3.86,14.14,3.06,2.22-1.13,13-5,14.06,7.07.06.87.57.3.92-.15,8.14-10.23-.58-16.55-5.42-17.29.39-.57,6.92-6,12.78,1.52.39.51.77.62.84-.4.67-13-9.89-14.16-16.72-8.52-.32-1.33-2.6-8.63,7.72-8.37.25,0,.74-.37.22-.87-8-8.47-14.6-.77-16.13,1.07-3.57,4.2-12.45,2.53-13.27,2.42,2.79-45.11,42.53-29.13,48-51,.26-1.16.77-.73.88-.31,1.51,5.36,15,6.1,17.47-4.44.14-.65.06-1.16-.42-.67-11.5,11.49-37.41-24.43-2.05-53.62,30.18-24.88,57.23-11,67.52-2.82.55,3.61-1.6,4.77-3,5.21-.49.14-.64.6.14.91,2.88,1.09,6.93.74,8.83-2,6.48,4.53.93,10.23-1.7,11.82-.66.41-.37.85.19,1,6,1.07,10.85-5,11.08-8.5l1,.56v25.64c0,36.5,42.1,41.56,88.32,72.51,46.2-31,88.31-36,88.31-72.51V716.85l1-.56c.24,3.49,5.14,9.57,11.09,8.5.56-.11.84-.55.18-1-2.62-1.59-8.17-7.29-1.69-11.82,1.89,2.69,6,3,8.83,2,.77-.31.63-.77.13-.91-1.37-.44-3.52-1.6-3-5.21,10.29-8.19,37.34-22.06,67.52,2.82,35.36,29.19,9.44,65.11-2,53.62-.49-.49-.56,0-.42.67,2.47,10.54,16,9.8,17.46,4.44.1-.42.63-.85.89.31,5.46,21.92,45.2,5.94,48,51-.82.11-9.71,1.78-13.27-2.42-1.53-1.84-8.12-9.54-16.13-1.07-.53.5,0,.87.21.87,10.33-.26,8.05,7,7.72,8.37-6.82-5.64-17.39-4.46-16.71,8.52.06,1,.45.91.84.4,5.86-7.5,12.38-2.09,12.78-1.52-4.84.74-13.57,7.06-5.43,17.29.35.45.86,1,.93.15,1.07-12.11,11.83-8.2,14.06-7.07,1.57.8,9,3,14.14-3.06,2,9.16,13.55,8.2,14.66,8.12.83-.05.89-.56.12-1.09-4.95-3.31-9.55-9.65-2.12-12,0,0,9.83,8.92,17.78-.84.7-.89.26-1.12-.2-.94-.92.33-12.15,1.67-11.34-9.61.53-7.83,6.3-34.45-4.35-41.22-.68-.46-1-.86-.29-1,10.76-2.38,12.14-9.89,8.64-18.42-.45-1.1-1-.89-1.11-.08-.83,17.28-28.47,9-29.34-15.09,14.76,3.82,40.24-1.35,40.24-25.47,0-23.77-30.38-36.46-30.38-53.76,0-2.89-.07-14.85,14-14.85,11.5,0,20,8.61,22.32,17.73.09.42.6.56,1,0,1.7-2.19,1.37-11.18-2.74-16-.42-.47,0-1.31.92-.8a22.88,22.88,0,0,0,9.64,2c9.44,0,14.51-5.19,14.51-13.82,0-5.39-1.85-8.1-1.11-9.88.38-.82-.63-1.42-1.13-.38-1.36,2.67-3.79,9.66-13.5,9.66l-23.22,0c-25.93,0-28.3,21-28.3,26.12,0,21.25,27,30.5,27,52.05,0,5.07-2.55,13.51-16.53,13.51a42.32,42.32,0,0,1-15.4-3.2s-6.22-37.8-24.52-50.87c0,0-21.47,10.42-42.67-1.07-16.23-8.78-23.87-14.66-38.09-4.83s-26.63,20.39-28.18,20.12l-3.4-.67V609.77c6.59-.69,7.06,5.21,6.77,6.77-.37,2-2.53,3.52,2,10.25.35.49.88.31.93-.25.18-1.72,1.06-4.59,3.35-4.59s12.32,7.61,21,16.24c0,0,5-15,16.84-19.57-6.75-1-35.86-8.11-35.86-20.83,0-4.26-4.8-5.24-7.94-5-.14-.36-4.91-11.67-13.78-5.77a.61.61,0,0,0,.16,1.11c3.93.91,5.6,5,5.77,9.4a319,319,0,0,0-87.48-12.75A313.84,313.84,0,0,0,717,589.93v29.43H705.07V592.29h0M626,893.86c-3.17-1.27-5.26-3.31-5.26-7.48V868.1c-5.23-1.84-19.55-7.3-48.11-7.3-23.74,0-31.18,5.35-31.53,7.25l-6.31,34.81s9.62-8.8,44-6.54c41.47,2.64,84.44,27.11,84.44,1V882C630.76,882,626,892.33,626,893.86ZM881.17,882v15.35c0,26.09,43,1.62,84.44-1,34.42-2.26,44,6.54,44,6.54l-6.31-34.81c-.34-1.9-7.78-7.25-31.53-7.25-28.55,0-42.88,5.46-48.1,7.3v18.28c0,4.17-2.1,6.21-5.26,7.48C918.44,892.33,913.67,882,881.17,882Zm-108.95-15.8c66.78,0,134.58,3.5,143.45,13.56.71.81,1,0,1-.62l0-35.39c0-10.32-70-16.33-144.47-16.33s-144.47,6-144.47,16.33l0,35.39c0,.61.29,1.43,1,.62C637.64,869.69,705.44,866.19,772.22,866.19ZM712.66,699.32l-6.75-1.75-.57.84L697.5,695l7-.05c.66,0,.7-.42.36-.75l-6-5.86,7.74,2.87c.51.19.71-.2.46-.54-2.18-3.23-5.16-7.56-5.16-7.56l7.59,5.08c.41.29.74,0,.56-.4-1.68-4.17-3.59-8.88-3.59-8.88l6.93,6.53c.31.29.67.13.58-.31l-1.91-8.88,5.08,7.43c.3.43.68.31.69-.2,0-1.46.16-8.12.16-8.12l3.23,7.42c.21.51.6.55.87-.1l2.61-6.29.3,8.45-1.13.22-1.42,10.18c10.09-2.37,22.65-19.61,32.28-19.61,11.47,0,15.64,13.44,36.84,6.63,5.34,7.91,7.22,14.8,9.28,24.32,8.18,7.7,19.67,5.13,19.67-3,0-11-12-13.08-12-24.53,0-5.11,3.59-12.47,13.37-12.47,5.17,0,12.75,2.22,17.11,2.22,5.18,0,6.28-3.75,6.87-5.29.47-1.17,1.88-.79,1.74.12-.17,1.08.6,2.57.6,5,0,7.24-10.54,8.19-11.85,7.3-.54-.38-.94.2-.54.51,1.58,1.27,1.22,5.59-.66,8.34-.23.31-.52.25-.58,0-1.13-5.19-7.22-11.6-12.58-11.6-2,0-5.9,1.15-5.9,5.7,0,6.52,13.05,12.45,13.05,26,0,14-13.91,17.41-27.89,13.91.48,13.29,20.32,21.19,20.79,11.69,0-.66.38-.25.59,0,2.94,4.06,1.6,7.15-2.15,8.72,3.46,1.56,4.07,8.54,5.09,12.7,1.52,6.25,8.15,2.79,8.48,2.61s.48,0,.33.38c-2.51,6.5-9.17,4-9.17,4-3.5,2.46.73,4.66,3.9,5.61.47.13.44.47.07.62-2.34.86-7.34,2.42-9.76-1.77-1.79,4.34-5.49,4.21-6.92,4.21-2.56,0-4.26,2.62-3.66,6.11.06.32-.16.41-.39.22-6.1-4-2.59-8.79-.13-10-.43-.26-4.63-2-6.41,2.91-.14.38-.38.4-.51,0-2.66-7.09,3.15-9.14,7.33-7.36-.29-1-2.48-4.46-8-3.35-.24.07-.41,0-.25-.38.9-2.17,3.63-5.37,8.63-2.13,2.55,1.58,7-.73,7.35-.93-8.88-17.68-26.14-2.88-30-16.73-.07-.29-.42-.55-.66.22-.92,3-8.44,3.15-9.83-2.66-.11-.45.07-.51.36-.22,1.1,1.11,3.47,2.11,6.58-2.38,2.06-3,2.35-6.94,2.35-9.63,0-10.76-10.74-28.8-27.49-28.8-10.59,0-22,4.13-30.42,10.28l7.87,1.8a12.18,12.18,0,0,1-15.42,10.64l1.22-9.11c-1.22.39-4.31,1.48-6,3.83a.23.23,0,0,1-.42-.08c-1.44-5.15,2.82-7.75,4.15-8.43.14-.09.13-.2-.14-.2a7.56,7.56,0,0,0-6.56,3.63.17.17,0,0,1-.31,0C711.55,703.87,710.88,701.21,712.66,699.32ZM736,760.78c-3,3.68-5.66.17-9.61.17-3.72,0-4.34,3.11-4.43,4.35,0,.22-.14.31-.3.07-4.21-5.75.49-8.88,3.24-9.3-.4-.4-4.54-3.19-7.18.63-.2.28-.45.15-.45-.18-.13-7.13,5.53-7.64,9.26-4.51.68-2.7-1.07-4.52-4.1-4.66-.36,0-.41-.24-.27-.4a5.16,5.16,0,0,1,3.73-2c4,0,4.48,5,7.08,5,3.89,0,9.4-5.25,9.93-5.81-.11-.29-3.83-10.38-3.1-16.42,0-.26-.1-.29-.27-.19-1.88,1.06-6.65,1-6.65-4.86,0-.47.13-.5.4-.12,2.09,2.89,5.49-.37,7.18-2.28S752.11,704,765.19,704c2.88,0,6.59,1.58,9.58,3.66-4.52,5.5,0,10.76,3.31,10.08.39-.07.47.3.09.42-17.28,6.5-25,9.11-25,23.58,0,7.55,2.58,11.74,7,10.76.33-.09.42,0,.19.31a6.5,6.5,0,0,1-5,2.55c-3.59,0-4.23-2-6.16-2s-8.42,3.79-8.42,7c0,1.2.75,2.82,3,4.31.14.09.06.22-.06.24C742.31,765.17,737.2,765.61,736,760.78Zm45.52-140.72c-5.41-.33-8.87.87-8.7,2.6C775.47,625.43,779,625.12,781.54,620.06ZM761.6,633.42a22.8,22.8,0,0,1,8.46-.37.62.62,0,0,1-.1,1.21c-8,1-8.33,4.67-13.41,4.67-3.35,0-7-3.36-5.6-8.33.17-.64.67-.66.82-.06C752.28,632.69,755.37,635,761.6,633.42ZM658.25,809.88c5.28,6.76,10.34.4,17.25.4,3.37,0,7.49,1.15,8.27,7.92,0,.35.33.46.65,0,7.54-10.3-1-16.11-6-16.86,1.07-1,8.44-5.49,13.11,1.2a.41.41,0,0,0,.77-.25c0-13-9.77-13.95-16.84-8.3-1.33-5.08,2.5-8.43,7.42-8.43.6,0,.81-.4.5-.75-8.73-9.35-15.27,2.41-16.75,4.28-3.49,4.64-16-4.08-20.94-9.26,0,0,11-11.55,11-22.11,0-.62-.07-1.51-.07-1.87s.15-.46.45-.27a8.59,8.59,0,0,0,4.06,1c2.52,0,7.28-.8,7.28-9.76,0-.67-.31-.63-.6-.23A4.6,4.6,0,0,1,664,749c-8.89,0-27.47-29.68-49.37-29.68-5.72,0-16.55,4.14-22,10.05,2.65,1.57,3.15,4.77,2.87,7.12-.4,3.77-3.38,5.63-6.44,6.48-.55.13-.59.53,0,.77,11.06,4.22,31.18,11.85,35.76,15.78,5.4,4.66,4.35,13.51,1.21,25.69-3,11.7-9.5,10.1-11.88,9.72-.35,0-.47.17-.25.44a11.72,11.72,0,0,0,9.3,4.8c5.75,0,7.9-3.56,10.87-3.56,5,0,15.49,7.17,15.49,12.63,0,3.06-2.4,5.85-5.48,7.85-.2.14-.17.38.13.43C646.56,817.87,656.36,818.71,658.25,809.88Zm242,7.59c.3-.05.34-.29.14-.43-3.08-2-5.49-4.79-5.49-7.85,0-5.46,10.48-12.63,15.49-12.63,3,0,5.12,3.56,10.86,3.56a11.75,11.75,0,0,0,9.32-4.8c.21-.27.09-.49-.25-.44-2.38.38-8.86,2-11.89-9.72-3.13-12.18-4.18-21,1.22-25.69,4.57-3.93,24.69-11.56,35.76-15.78.59-.24.55-.64,0-.77-3.06-.85-6-2.71-6.45-6.48-.27-2.35.22-5.55,2.88-7.12-5.47-5.91-16.31-10.05-22-10.05-21.9,0-40.48,29.68-49.37,29.68a4.57,4.57,0,0,1-3.86-2.31c-.29-.4-.6-.44-.6.23,0,9,4.75,9.76,7.27,9.76a8.63,8.63,0,0,0,4.07-1c.29-.19.44-.06.44.27s-.07,1.25-.07,1.87c0,10.56,11,22.11,11,22.11-5,5.18-17.46,13.9-21,9.26-1.48-1.87-8-13.63-16.74-4.28-.31.35-.1.75.49.75,4.92,0,8.75,3.35,7.43,8.43-7.07-5.65-16.84-4.74-16.84,8.3a.41.41,0,0,0,.77.25c4.66-6.69,12-2.16,13.09-1.2-4.94.75-13.51,6.56-6,16.86.32.46.61.35.66,0,.77-6.77,4.9-7.92,8.26-7.92,6.91,0,12,6.36,17.25-.4C888.08,818.71,897.88,817.87,900.27,817.47ZM723,646.27c-.7,1-3,0-3.88-.44-.2-.09-.23,0-.16.15.55,1.24,2.77,4.95,6.07,4.95,1.49,0,3.67-.87,4.29-1.87,0,0,12.89,4.18,19.28,6a21.74,21.74,0,0,0-4.34,11.58c-5.14-3.17-25.72-14.2-25.72-14.2l-6.38,8.72c-1.06,1.44-6.15-2.28-5.1-3.73l4.87-6.67c-1.61-1.71-5.5-.63-6.55-.33-.15,0-.29,0-.15-.29.62-1.31,3-5.35,9.1-3.53,0-3.69-5.49-2.51-6.93-2.11-.18,0-.23,0-.07-.2,1.49-1.6,6-5.23,11-2.26l2.19-3-4.42-4.64,2.77-3.81,3.09,4.17,23.76-32.53c.58-.8,5.29-2.17,7.07-2.55.19,1.82.39,6.7-.18,7.5L729.25,640l4.92,1.62-2.72,3.83-5.82-2.72ZM806.34,641c0,3,1.83,7.35,5.82,6.09.2-.09.38,0,.34.17-.61,3.33-6.55,6.37-9.26,2.44-2.4,5.08-1.85,9.83,3.35,12.63a.44.44,0,0,1,0,.77,6.8,6.8,0,0,1-10.17-2.59c-4.26,3.2-3.64,10-1,12.38,0,0-11.8,7-22.51,2-7.1-3.4-12.88-7.75-22-7,1.27-12.84,7.69-16.22,19.49-18.06,9.43-1.53,10.63-5.87,9.28-9.14-3.2-.86-9.07,2.09-9.07,2.09-1-1.76.48-3.6.48-3.6a8.9,8.9,0,0,1-.88-3.08c6.59,0,7.76-1.46,7.76-1.46,1.17-6.86-5.82-7.59-11.14-3.89a6.14,6.14,0,0,1-2.08-5.1,2.73,2.73,0,0,1-1.2-2c0-1.62,7.82-6,9.83-6.54.51-2.27,3.35-5.42,11.65-4.68,1-2.2-.62-10.23-1.64-12.4-.32-.65.15-1,.88-.56,2.9,1.84,5.79,8.61,7.75,8.74,0,0,9.34-4.9,9.8-4.63s1.76,10.69,1.76,10.69c1.24,1.53,8.45,0,11.6,1.38.8.35.77.93,0,1-2.35.4-9.87,3.64-11.11,5.72C808.37,628.81,806.34,638.33,806.34,641Z"/><text class="cls-4" transform="translate(520.72 1429.61)">IST</text></svg>