<?xml version="1.0" encoding="utf-8"?>
<!-- Generator: Adobe Illustrator 22.1.0, SVG Export Plug-In . SVG Version: 6.00 Build 0)  -->
<svg version="1.1" id="Laag_1" xmlns="http://www.w3.org/2000/svg" xmlns:xlink="http://www.w3.org/1999/xlink" x="0px" y="0px"
	 viewBox="0 0 1536 1536" style="enable-background:new 0 0 1536 1536;" xml:space="preserve">
<g>
	<path d="M970.8,860.8c-28.6,0-42.9,5.5-48.1,7.3v18.3c0,4.2-2.1,6.2-5.3,7.5c0-1.5-4.8-11.9-37.3-11.9v15.3c0,26.1,43,1.6,84.4-1
		c34.4-2.3,44,6.5,44,6.5l-6.3-34.8C1002,866.2,994.6,860.8,970.8,860.8z"/>
	<path d="M921.8,577.7c0,0-0.3,5.9,4,9.8c17.5-10.6,22.4-0.7,20.6,6.3c0,0-3.1,2.5-14.9,2.5c0,0,0.6,4.3,1.6,5.5
		c0,0-2.7,3.4-0.8,6.5c0,0,6-4.6,16.5-4.1c0,0,6.7,10.2-18.2,15c-24.9,4.8-32.8,28.3-32.8,41.2c0,0.6,0.3,1,0.8,0.9
		c20.1-3.8,29.3,17.1,55.5,14.7c-2.3-6.1,0.2-12.6,0.2-12.6c2.1,5.5,7,9.1,10.5,11c9.3-2.1,15.4-6.5,16.8-9.2c0,0-9.8-8.2-3.4-22.9
		c0,0,6.2,9.8,19,4.5c1.1-0.5,0.9-1.2,0.1-1.5c-17.3-5.6-6-20.2-5-21.7c8,4.5,14.8-1.4,14.8-6.6c0-0.9-0.4-0.7-0.8-0.6
		c-7.5,3.7-11.5-4.3-9.7-12.6c1-4.6,5.1-17.2-5.1-27.3c-10,5.7-16.7-3.7-15-8.2c0.5-1.2,1.2-1.4,1.2,0.1c0,3.2,3.2,5.5,5.5,5.5
		c4,0,11.4-4.5,12-11.4c-10.3-6.8-27.8-4-31.3,8.7c-0.4,1.6-2.4,1.5-2.2-0.1c0.1-1.1,0.5-8.7,8.1-12.5c6.8-3.4,4.3-8.5,2.5-10.3
		c-0.7-0.7-2.1-0.6-1.7,0.2c2.6,4.5-3,6.6-10.8,5.6c-16.5-2.2-21.9,3.9-22.8,8.2c-3.6,0.9-17.6,8.8-17.6,11.7
		C919.7,575.1,920.5,577.1,921.8,577.7z M950.7,567.9c-1.9,8.7-9.6,10-14.3,4.7C936.7,568.4,940.9,567.4,950.7,567.9z"/>
	<path d="M613.1,794.9c-0.3-0.1-0.5,0.2-0.2,0.4c2.9,3.6,6.3,4.8,9.3,4.8c5.7,0,7.9-3.6,10.9-3.6c5,0,15.5,7.2,15.5,12.6
		c0,3.1-2.4,5.8-5.5,7.8c-0.2,0.1-0.2,0.4,0.1,0.4c2.4,0.4,12.2,1.2,14.1-7.6c5.3,6.8,10.3,0.4,17.2,0.4c3.4,0,7.5,1.1,8.3,7.9
		c0,0.3,0.3,0.5,0.7,0c7.5-10.3-1-16.1-6-16.9c1.1-1,8.4-5.5,13.1,1.2c0.3,0.4,0.8,0.3,0.8-0.3c0-13-9.8-13.9-16.8-8.3
		c-1.3-5.1,2.5-8.4,7.4-8.4c0.6,0,0.8-0.4,0.5-0.7c-8.7-9.4-15.3,2.4-16.7,4.3c-3.5,4.6-16-4.1-20.9-9.3c0,0,11-11.5,11-22.1
		c0-0.6-0.1-1.5-0.1-1.9c0-0.3,0.1-0.5,0.4-0.3c1.1,0.6,2.6,1.1,4.1,1.1c2.5,0,7.3-0.8,7.3-9.8c0-0.7-0.3-0.6-0.6-0.2
		c-1.3,1.9-2.8,2.3-3.9,2.3c-8.9,0-27.5-29.7-49.4-29.7c-5.7,0-16.5,4.1-22,10.1c2.6,1.6,3.1,4.8,2.9,7.1c-0.4,3.8-3.4,5.6-6.4,6.5
		c-0.5,0.1-0.6,0.5,0,0.8c11.1,4.2,31.2,11.9,35.8,15.8c5.4,4.7,4.4,13.5,1.2,25.7C622,796.9,615.5,795.3,613.1,794.9z"/>
	<path d="M906.6,599.8c6.7,0,10.5-4.8,20-6.4c4.2-0.7,7.1-0.1,7.1-1.3c0-1.3-6.2-1.3-7.1-1.3c-9.9,0-11.3,2.2-17.6,2.2
		c-5.1,0-9.9-2.3-10.9-6.2c-0.2-1-1.1-1.3-1.5,0.1C894.3,595.7,900.5,599.8,906.6,599.8z"/>
	<path d="M625,893.9c-3.2-1.3-5.3-3.3-5.3-7.5v-18.3c-5.2-1.8-19.6-7.3-48.1-7.3c-23.7,0-31.2,5.4-31.5,7.2l-6.3,34.8
		c0,0,9.6-8.8,44-6.5c41.5,2.6,84.4,27.1,84.4,1V882C629.8,882,625,892.3,625,893.9z"/>
	<path d="M851.1,802.3c0,0.5,0.5,0.6,0.8,0.3c4.7-6.7,12-2.2,13.1-1.2c-4.9,0.7-13.5,6.6-6,16.9c0.3,0.5,0.6,0.3,0.7,0
		c0.8-6.8,4.9-7.9,8.3-7.9c6.9,0,12,6.4,17.2-0.4c1.9,8.8,11.7,8,14.1,7.6c0.3-0.1,0.3-0.3,0.1-0.4c-3.1-2-5.5-4.8-5.5-7.8
		c0-5.5,10.5-12.6,15.5-12.6c3,0,5.1,3.6,10.9,3.6c3,0,6.4-1.2,9.3-4.8c0.2-0.3,0.1-0.5-0.2-0.4c-2.4,0.4-8.9,2-11.9-9.7
		c-3.1-12.2-4.2-21,1.2-25.7c4.6-3.9,24.7-11.6,35.8-15.8c0.6-0.2,0.5-0.6,0-0.8c-3.1-0.9-6-2.7-6.4-6.5c-0.3-2.3,0.2-5.6,2.9-7.1
		c-5.5-5.9-16.3-10.1-22-10.1c-21.9,0-40.5,29.7-49.4,29.7c-1.1,0-2.6-0.4-3.9-2.3c-0.3-0.4-0.6-0.4-0.6,0.2c0,9,4.8,9.8,7.3,9.8
		c1.4,0,3-0.4,4.1-1.1c0.3-0.2,0.4-0.1,0.4,0.3c0,0.4-0.1,1.3-0.1,1.9c0,10.6,11,22.1,11,22.1c-5,5.2-17.5,13.9-20.9,9.3
		c-1.5-1.9-8-13.6-16.7-4.3c-0.3,0.3-0.1,0.7,0.5,0.7c4.9,0,8.7,3.4,7.4,8.4C860.9,788.3,851.1,789.3,851.1,802.3z"/>
	<path d="M914.7,879.8c0.7,0.8,1,0,1-0.6l0-35.4c0-10.3-70-16.3-144.5-16.3c-74.5,0-144.5,6-144.5,16.3l0,35.4c0,0.6,0.3,1.4,1,0.6
		c8.9-10.1,76.7-13.6,143.4-13.6C838,866.2,905.8,869.7,914.7,879.8z"/>
	<path d="M488.3,657.9c4.3,0,8.3-1.2,9.6-2c0.9-0.5,1.3,0.3,0.9,0.8c-4.1,4.8-4.4,13.8-2.7,16c0.4,0.5,0.9,0.4,1,0
		c2.3-9.1,10.8-17.7,22.3-17.7c14.1,0,14,12,14,14.9c0,17.3-30.4,30-30.4,53.8c0,24.1,25.5,29.3,40.2,25.5
		c-0.9,24.1-28.5,32.4-29.3,15.1c-0.1-0.8-0.7-1-1.1,0.1c-3.5,8.5-2.1,16,8.6,18.4c0.7,0.2,0.4,0.6-0.3,1
		c-10.6,6.8-4.9,33.4-4.4,41.2c0.8,11.3-10.4,9.9-11.3,9.6c-0.5-0.2-0.9,0.1-0.2,0.9c8,9.8,17.8,0.8,17.8,0.8
		c7.4,2.3,2.8,8.7-2.1,12c-0.8,0.5-0.7,1,0.1,1.1c1.1,0.1,12.6,1,14.7-8.1c5.1,6.1,12.6,3.9,14.1,3.1c2.2-1.1,13-5,14.1,7.1
		c0.1,0.9,0.6,0.3,0.9-0.1c8.1-10.2-0.6-16.5-5.4-17.3c0.4-0.6,6.9-6,12.8,1.5c0.4,0.5,0.8,0.6,0.8-0.4c0.7-13-9.9-14.2-16.7-8.5
		c-0.3-1.3-2.6-8.6,7.7-8.4c0.2,0,0.7-0.4,0.2-0.9c-8-8.5-14.6-0.8-16.1,1.1c-3.6,4.2-12.5,2.5-13.3,2.4c2.8-45.1,42.5-29.1,48-51
		c0.3-1.2,0.8-0.7,0.9-0.3c1.5,5.4,15,6.1,17.5-4.4c0.1-0.7,0.1-1.2-0.4-0.7c-11.5,11.5-37.4-24.4-2.1-53.6
		c30.2-24.9,57.2-11,67.5-2.8c0.5,3.6-1.6,4.8-3,5.2c-0.5,0.1-0.6,0.6,0.1,0.9c2.9,1.1,6.9,0.7,8.8-1.9c6.5,4.5,0.9,10.2-1.7,11.8
		c-0.7,0.4-0.4,0.9,0.2,1c6,1.1,10.8-5,11.1-8.5l1,0.6v25.6c0,36.5,42.1,41.6,88.3,72.5c46.2-30.9,88.3-36,88.3-72.5v-25.6l1-0.6
		c0.2,3.5,5.1,9.6,11.1,8.5c0.6-0.1,0.8-0.5,0.2-1c-2.6-1.6-8.2-7.3-1.7-11.8c1.9,2.7,6,3,8.8,1.9c0.8-0.3,0.6-0.8,0.1-0.9
		c-1.4-0.4-3.5-1.6-3-5.2c10.3-8.2,37.3-22.1,67.5,2.8c35.4,29.2,9.4,65.1-2.1,53.6c-0.5-0.5-0.6,0-0.4,0.7
		c2.5,10.5,16,9.8,17.5,4.4c0.1-0.4,0.6-0.9,0.9,0.3c5.5,21.9,45.2,5.9,48,51c-0.8,0.1-9.7,1.8-13.3-2.4c-1.5-1.8-8.1-9.5-16.1-1.1
		c-0.5,0.5,0,0.9,0.2,0.9c10.3-0.3,8,7,7.7,8.4c-6.8-5.6-17.4-4.5-16.7,8.5c0.1,1,0.4,0.9,0.8,0.4c5.9-7.5,12.4-2.1,12.8-1.5
		c-4.8,0.7-13.6,7.1-5.4,17.3c0.3,0.5,0.9,1,0.9,0.1c1.1-12.1,11.8-8.2,14.1-7.1c1.6,0.8,9,3,14.1-3.1c2,9.2,13.5,8.2,14.7,8.1
		c0.8-0.1,0.9-0.6,0.1-1.1c-5-3.3-9.6-9.6-2.1-12c0,0,9.8,8.9,17.8-0.8c0.7-0.9,0.3-1.1-0.2-0.9c-0.9,0.3-12.2,1.7-11.3-9.6
		c0.5-7.8,6.3-34.4-4.4-41.2c-0.7-0.5-1-0.9-0.3-1c10.8-2.4,12.1-9.9,8.6-18.4c-0.5-1.1-1.1-0.9-1.1-0.1c-0.8,17.3-28.5,9-29.3-15.1
		c14.8,3.8,40.2-1.3,40.2-25.5c0-23.8-30.4-36.5-30.4-53.8c0-2.9-0.1-14.9,14-14.9c11.5,0,20,8.6,22.3,17.7c0.1,0.4,0.6,0.6,1,0
		c1.7-2.2,1.4-11.2-2.7-16c-0.4-0.5,0-1.3,0.9-0.8c1.3,0.8,5.4,2,9.6,2c9.4,0,14.5-5.2,14.5-13.8c0-5.4-1.9-8.1-1.1-9.9
		c0.4-0.8-0.6-1.4-1.1-0.4c-1.4,2.7-3.8,9.7-13.5,9.7c-0.1,0-19.9,0-23.2,0c-25.9,0-28.3,21-28.3,26.1c0,21.2,27,30.5,27,52
		c0,5.1-2.6,13.5-16.5,13.5c-5.7,0-11.8-1.6-15.4-3.2c0,0-6.2-37.8-24.5-50.9c0,0-21.5,10.4-42.7-1.1c-16.2-8.8-23.9-14.7-38.1-4.8
		c-14.2,9.8-26.6,20.4-28.2,20.1l-3.4-0.7v-84.9c6.6-0.7,7.1,5.2,6.8,6.8c-0.4,2-2.5,3.5,2,10.2c0.3,0.5,0.9,0.3,0.9-0.3
		c0.2-1.7,1.1-4.6,3.3-4.6c2.2,0,12.3,7.6,21,16.2c0,0,5-15,16.8-19.6c-6.8-1-35.9-8.1-35.9-20.8c0-4.3-4.8-5.2-7.9-5
		c-0.1-0.4-4.9-11.7-13.8-5.8c-0.5,0.3-0.3,1,0.2,1.1c3.9,0.9,5.6,5,5.8,9.4c-8.5-2.6-44.6-12.7-87.5-12.7c-20.8,0-40,2.4-55.2,5.2
		v29.4h-11.9v-27.1c-10,2.2-17.1,4.2-20.3,5.2c0.2-4.4,1.8-8.5,5.8-9.4c0.5-0.1,0.6-0.8,0.2-1.1c-8.9-5.9-13.6,5.4-13.8,5.8
		c-3.2-0.2-7.9,0.7-7.9,5c0,12.7-29.1,19.8-35.9,20.8c11.9,4.6,16.8,19.6,16.8,19.6c8.6-8.6,18.7-16.2,20.9-16.2
		c2.3,0,3.2,2.9,3.4,4.6c0.1,0.6,0.6,0.7,0.9,0.3c4.5-6.7,2.3-8.3,2-10.2c-0.3-1.6,0.2-7.5,6.8-6.8v84.9l-3.4,0.7
		c-1.6,0.3-14-10.3-28.2-20.1c-14.2-9.8-21.9-4-38.1,4.8c-21.2,11.5-42.7,1.1-42.7,1.1C552.3,694.2,546,732,546,732
		c-3.6,1.6-9.7,3.2-15.4,3.2c-14,0-16.5-8.4-16.5-13.5c0-21.6,27-30.8,27-52c0-5.2-2.4-26.1-28.3-26.1c-3.3,0-23.1,0-23.2,0
		c-9.7,0-12.1-7-13.5-9.7c-0.5-1-1.5-0.4-1.1,0.4c0.7,1.8-1.1,4.5-1.1,9.9C473.8,652.7,478.9,657.9,488.3,657.9z M759.2,752.5
		c0.3-0.1,0.4,0.1,0.2,0.3c-1.6,1.9-3.5,2.5-5,2.5c-3.6,0-4.2-2-6.2-2c-2,0-8.4,3.8-8.4,7c0,1.2,0.8,2.8,3,4.3
		c0.1,0.1,0.1,0.2-0.1,0.2c-1.4,0.3-6.6,0.7-7.7-4.1c-3,3.7-5.7,0.2-9.6,0.2c-3.7,0-4.3,3.1-4.4,4.4c0,0.2-0.1,0.3-0.3,0.1
		c-4.2-5.8,0.5-8.9,3.2-9.3c-0.4-0.4-4.5-3.2-7.2,0.6c-0.2,0.3-0.5,0.1-0.5-0.2c-0.1-7.1,5.5-7.6,9.3-4.5c0.7-2.7-1.1-4.5-4.1-4.7
		c-0.4,0-0.4-0.2-0.3-0.4c1.3-1.4,2.5-2,3.7-2c4,0,4.5,5,7.1,5c3.9,0,9.4-5.2,9.9-5.8c-0.1-0.3-3.8-10.4-3.1-16.4
		c0-0.3-0.1-0.3-0.3-0.2c-1.9,1.1-6.7,1-6.7-4.9c0-0.5,0.1-0.5,0.4-0.1c2.1,2.9,5.5-0.4,7.2-2.3c1.8-2,11.6-16.3,24.7-16.3
		c2.9,0,6.6,1.6,9.6,3.7c-4.5,5.5,0,10.8,3.3,10.1c0.4-0.1,0.5,0.3,0.1,0.4c-17.3,6.5-25,9.1-25,23.6
		C752.2,749.3,754.7,753.5,759.2,752.5z M783.2,793.9h-11.9v-33.1h11.9V793.9z M825.1,614.7H837v33.1h-11.9V614.7z M772.3,617.1
		c0.5-2.3,3.4-5.4,11.7-4.7c1-2.2-0.6-10.2-1.6-12.4c-0.3-0.7,0.1-1,0.9-0.6c2.9,1.8,5.8,8.6,7.8,8.7c0,0,9.3-4.9,9.8-4.6
		c0.4,0.3,1.8,10.7,1.8,10.7c1.2,1.5,8.4,0,11.6,1.4c0.8,0.3,0.8,0.9,0.1,1c-2.4,0.4-9.9,3.6-11.1,5.7c4.3,6.5,2.3,16,2.3,18.6
		c0,3,1.8,7.4,5.8,6.1c0.2-0.1,0.4,0,0.3,0.2c-0.6,3.3-6.5,6.4-9.3,2.4c-2.4,5.1-1.8,9.8,3.4,12.6c0.3,0.2,0.3,0.5,0,0.8
		c-3.1,2.3-7.9,1.7-10.2-2.6c-4.3,3.2-3.6,10.1-1.1,12.4c0,0-11.8,7-22.5,2c-7.1-3.4-12.9-7.8-22-7c1.3-12.8,7.7-16.2,19.5-18.1
		c9.4-1.5,10.6-5.9,9.3-9.1c-3.2-0.9-9.1,2.1-9.1,2.1c-1.1-1.8,0.5-3.6,0.5-3.6c-0.6-0.7-0.9-3.1-0.9-3.1c6.6,0,7.8-1.5,7.8-1.5
		c1.2-6.9-5.8-7.6-11.1-3.9c-2.5-2.2-2.1-5.1-2.1-5.1c-0.7-0.4-1.2-1.5-1.2-2C762.5,622,770.3,617.6,772.3,617.1z M760.6,633.4
		c3.8-1,8-0.5,8.5-0.4c0.6,0.2,0.6,1.1-0.1,1.2c-8,1-8.3,4.7-13.4,4.7c-3.3,0-7-3.4-5.6-8.3c0.2-0.6,0.7-0.7,0.8-0.1
		C751.3,632.7,754.4,635,760.6,633.4z M704.2,650.1c0.6-1.3,3-5.4,9.1-3.5c0-3.7-5.5-2.5-6.9-2.1c-0.2,0-0.2,0-0.1-0.2
		c1.5-1.6,6-5.2,11-2.3l2.2-3l-4.4-4.6l2.8-3.8l3.1,4.2l23.8-32.5c0.6-0.8,5.3-2.2,7.1-2.5c0.2,1.8,0.4,6.7-0.2,7.5L728.2,640
		l4.9,1.6l-2.7,3.8l-5.8-2.7l-2.6,3.6c-0.7,1-3,0-3.9-0.4c-0.2-0.1-0.2,0-0.2,0.1c0.6,1.2,2.8,5,6.1,5c1.5,0,3.7-0.9,4.3-1.9
		c0,0,12.9,4.2,19.3,6c-2.5,3.3-4,7.3-4.3,11.6c-5.1-3.2-25.7-14.2-25.7-14.2l-6.4,8.7c-1.1,1.4-6.2-2.3-5.1-3.7l4.9-6.7
		c-1.6-1.7-5.5-0.6-6.6-0.3C704.2,650.4,704.1,650.3,704.2,650.1z M703.9,694.2c-3.2-3.1-6-5.9-6-5.9s3.2,1.2,7.7,2.9
		c0.5,0.2,0.7-0.2,0.5-0.5c-2.2-3.2-5.2-7.6-5.2-7.6s6.3,4.2,7.6,5.1c0.4,0.3,0.7,0,0.6-0.4c-1.7-4.2-3.6-8.9-3.6-8.9l6.9,6.5
		c0.3,0.3,0.7,0.1,0.6-0.3c-0.7-3.1-1.9-8.9-1.9-8.9l5.1,7.4c0.3,0.4,0.7,0.3,0.7-0.2c0-1.5,0.2-8.1,0.2-8.1s2.1,4.9,3.2,7.4
		c0.2,0.5,0.6,0.5,0.9-0.1c0.3-0.8,2.6-6.3,2.6-6.3l0.3,8.4l-1.1,0.2l-1.4,10.2c10.1-2.4,22.6-19.6,32.3-19.6
		c11.5,0,15.6,13.4,36.8,6.6c5.3,7.9,7.2,14.8,9.3,24.3c8.2,7.7,19.7,5.1,19.7-3c0-11-12-13.1-12-24.5c0-5.1,3.6-12.5,13.4-12.5
		c5.2,0,12.8,2.2,17.1,2.2c5.2,0,6.3-3.8,6.9-5.3c0.5-1.2,1.9-0.8,1.7,0.1c-0.2,1.1,0.6,2.6,0.6,5c0,7.2-10.5,8.2-11.9,7.3
		c-0.5-0.4-0.9,0.2-0.5,0.5c1.6,1.3,1.2,5.6-0.7,8.3c-0.2,0.3-0.5,0.3-0.6,0c-1.1-5.2-7.2-11.6-12.6-11.6c-2,0-5.9,1.1-5.9,5.7
		c0,6.5,13.1,12.5,13.1,26c0,14-13.9,17.4-27.9,13.9c0.5,13.3,20.3,21.2,20.8,11.7c0-0.7,0.4-0.3,0.6,0c2.9,4.1,1.6,7.2-2.1,8.7
		c3.5,1.6,4.1,8.5,5.1,12.7c1.5,6.2,8.1,2.8,8.5,2.6c0.4-0.2,0.5,0,0.3,0.4c-2.5,6.5-9.2,4-9.2,4c-3.5,2.5,0.7,4.7,3.9,5.6
		c0.5,0.1,0.4,0.5,0.1,0.6c-2.3,0.9-7.3,2.4-9.8-1.8c-1.8,4.3-5.5,4.2-6.9,4.2c-2.6,0-4.3,2.6-3.7,6.1c0.1,0.3-0.2,0.4-0.4,0.2
		c-6.1-4-2.6-8.8-0.1-10c-0.4-0.3-4.6-2-6.4,2.9c-0.1,0.4-0.4,0.4-0.5,0c-2.7-7.1,3.1-9.1,7.3-7.4c-0.3-1-2.5-4.5-8-3.4
		c-0.2,0.1-0.4,0-0.3-0.4c0.9-2.2,3.6-5.4,8.6-2.1c2.5,1.6,7-0.7,7.4-0.9c-8.9-17.7-26.1-2.9-30-16.7c-0.1-0.3-0.4-0.5-0.7,0.2
		c-0.9,2.9-8.4,3.1-9.8-2.7c-0.1-0.5,0.1-0.5,0.4-0.2c1.1,1.1,3.5,2.1,6.6-2.4c2.1-3,2.3-6.9,2.3-9.6c0-10.8-10.7-28.8-27.5-28.8
		c-10.6,0-22,4.1-30.4,10.3l7.9,1.8c-0.7,8-8.4,12.6-15.4,10.6l1.2-9.1c-1.2,0.4-4.3,1.5-6,3.8c-0.1,0.2-0.4,0.1-0.4-0.1
		c-1.4-5.2,2.8-7.8,4.1-8.4c0.1-0.1,0.1-0.2-0.1-0.2c-3.8-0.1-6,2.7-6.6,3.6c-0.1,0.1-0.3,0.1-0.3,0c-0.3-0.9-1-3.6,0.8-5.5
		l-6.8-1.7l-0.6,0.8l-7.8-3.4c0,0,5.8,0,7-0.1C704.2,694.9,704.2,694.5,703.9,694.2z"/>
	<path d="M759.6,437.5c2.2,0,4.1-0.9,5.2-1.7c2.2-1.5,3.4-1.3,4.1-0.6c0.7,0.7-0.3,8.3-1.2,14.2c-6.2,1.3-9.2,6.3-9.2,9.2
		c0,7.5,8,11.8,12.7,14.3c4.7-2.5,12.7-6.8,12.7-14.3c0-2.9-3-7.9-9.2-9.2c-0.9-6-1.9-13.5-1.2-14.2c0.7-0.7,1.9-1,4.1,0.6
		c1.1,0.8,3,1.7,5.2,1.7c3.8,0,5.6-2.5,5.6-4.6s-1.9-4.6-5.6-4.6c-2.2,0-4.1,0.9-5.2,1.7c-2.2,1.5-3.4,1.3-4.1,0.6
		c-0.7-0.7-1-1.9,0.6-4.1c0.8-1.1,1.7-3,1.7-5.2c0-3.8-2.5-5.6-4.6-5.6c-2.1,0-4.6,1.9-4.6,5.6c0,2.2,0.9,4.1,1.7,5.2
		c1.5,2.2,1.3,3.4,0.6,4.1c-0.7,0.7-1.9,1-4.1-0.6c-1.1-0.8-3-1.7-5.2-1.7c-3.8,0-5.6,2.5-5.6,4.6S755.8,437.5,759.6,437.5z"/>
	<path d="M550.1,623.8c1,1.5,12.3,16.1-5,21.7c-0.8,0.3-1,1,0.1,1.5c12.8,5.3,19-4.5,19-4.5c6.4,14.7-3.4,22.9-3.4,22.9
		c1.4,2.7,7.5,7.1,16.8,9.2c3.5-1.9,8.4-5.5,10.5-11c0,0,2.5,6.4,0.2,12.6c26.1,2.4,35.3-18.5,55.4-14.7c0.6,0.1,0.9-0.3,0.9-0.9
		c0-12.9-7.9-36.4-32.8-41.2c-24.8-4.8-18.1-15-18.1-15c10.5-0.5,16.5,4.1,16.5,4.1c1.9-3.1-0.8-6.5-0.8-6.5c1-1.2,1.6-5.5,1.6-5.5
		c-11.8,0-14.9-2.5-14.9-2.5c-1.8-7,3-16.9,20.6-6.3c4.4-3.9,4-9.8,4-9.8c1.3-0.6,2.1-2.7,2.1-3.6c0-2.9-14-10.8-17.6-11.7
		c-0.9-4.2-6.3-10.4-22.8-8.2c-7.8,1-13.4-1.1-10.8-5.6c0.4-0.8-0.9-0.9-1.7-0.2c-1.8,1.8-4.3,6.9,2.5,10.3c7.5,3.8,8,11.4,8.1,12.5
		c0.1,1.6-1.8,1.7-2.2,0.1c-3.5-12.8-20.9-15.5-31.3-8.7c0.6,6.8,8,11.4,12,11.4c2.3,0,5.5-2.3,5.5-5.5c0-1.5,0.8-1.3,1.2-0.1
		c1.7,4.6-5,13.9-15,8.2c-10.2,10.2-6.1,22.7-5.1,27.3c1.8,8.3-2.2,16.3-9.7,12.6c-0.4-0.2-0.8-0.3-0.8,0.6
		C535.2,622.4,542,628.3,550.1,623.8z M606.1,572.5c-4.8,5.3-12.5,4.1-14.3-4.7C601.5,567.4,605.7,568.4,606.1,572.5z"/>
	<path d="M-1,0v1536h1536V0H-1z M702.7,1429.6H537.4v-37.5l110-160.6v-1.5H543.6v-39.3H702v37.5l-110.4,160.6v1.5h111.1V1429.6z
		 M790.9,1429.6h-47.3v-238.9h47.3V1429.6z M996.3,1429.6H830.9v-37.5l110-160.6v-1.5H837.1v-39.3h158.4v37.5l-110.4,160.6v1.5
		h111.1V1429.6z M1114.7,1105.9h-687V1.5h687V1105.9z"/>
	<path d="M780.5,620.1c-5.4-0.3-8.9,0.9-8.7,2.6C774.5,625.4,778,625.1,780.5,620.1z"/>
	<path d="M771.2,477c-5.1,0-9.1,4.1-9.1,9.1c0,5,4.1,9.1,9.1,9.1c5,0,9.1-4.1,9.1-9.1C780.4,481.1,776.3,477,771.2,477z"/>
	<path d="M608.8,592c0,1.3,2.9,0.6,7.1,1.3c9.6,1.6,13.3,6.4,20,6.4c6.1,0,12.3-4.1,9.9-12.9c-0.4-1.5-1.3-1.1-1.5-0.1
		c-0.9,3.9-5.8,6.2-10.9,6.2c-6.3,0-7.7-2.2-17.6-2.2C614.9,590.7,608.8,590.8,608.8,592z"/>
	<path d="M703.2,544.7c10.6-1.5,10.5,8.8,10.7,27.3c0,0,20.7-7,57.3-7c36.6,0,57.3,7,57.3,7c0.2-18.5,0.1-28.8,10.7-27.3
		c-5.8-15.5,19.2-21.6,19.2-41.9c0-13.3-9.4-14.9-12.2-14.9c-8.3,0-7,5.4-14,5.4c-0.9,0-1.8-0.2-1.8,0.4c0,2.3,2,6.3,5.2,6.3
		c4.3,0,4.4-4.3,7.6-4.3c1.4,0,3.4,1.1,3.4,5.6c0,8.6-5.6,18.2-12.3,25.6c-1.5-2.1-3.6-3.4-6.1-3.4c-3.9,0-7.4,4.1-7.4,9.2
		c0,1.9,0.3,3.2,1,4.8c-2.2,1.2-4.2,1.9-5.7,1.9c-3,0-7.5-1.2-7.5-7.8c0-14.7,19.7-27.6,19.7-46.2c0-8.9-5.9-17.7-18.3-17.7
		c-13.3,0-10.8,12.1-22.3,12.1c-0.5,0-0.9,0.2-0.9,0.6c0,0.8,2,7.5,7.9,7.5c6.4,0,8.2-11,13.8-11c2.1,0,5.3,1.2,5.3,8.7
		c0,5.8-2.9,15.2-7,24.2c-1.5-1.5-3.5-2.6-5.8-2.6c-4.9,0-8.5,4.8-8.5,10.5c0,3.6,1.4,7.1,3.9,9.4c-2.9,3.7-5.9,6.7-9.9,6.7
		c-7.9,0-11.5-4.5-11.5-9.4c0-5.3,9.7-7.2,9.7-15.5c0-5.6-3.7-8.8-7.2-8.8c-3.8,0-5.7,2.5-6.1,2.5c-0.4,0-2.3-2.5-6.1-2.5
		c-3.5,0-7.2,3.2-7.2,8.8c0,8.3,9.7,10.2,9.7,15.5c0,4.9-3.5,9.4-11.5,9.4c-4,0-7-3-9.9-6.7c2.4-2.3,3.9-5.8,3.9-9.4
		c0-5.7-3.5-10.5-8.5-10.5c-2.3,0-4.3,1.1-5.8,2.6c-4.1-9-7-18.4-7-24.2c0-7.5,3.2-8.7,5.3-8.7c5.6,0,7.4,11,13.8,11
		c6,0,7.9-6.7,7.9-7.5c0-0.5-0.4-0.6-1-0.6c-11.5,0-9-12.1-22.3-12.1c-12.4,0-18.3,8.8-18.3,17.7c0,18.6,19.7,31.5,19.7,46.2
		c0,6.6-4.5,7.8-7.5,7.8c-1.5,0-3.5-0.7-5.7-1.9c0.7-1.6,1-2.9,1-4.8c0-5.1-3.5-9.2-7.4-9.2c-2.5,0-4.6,1.3-6.1,3.4
		c-6.7-7.4-12.3-16.9-12.3-25.6c0-4.4,2-5.6,3.4-5.6c3.2,0,3.3,4.3,7.6,4.3c3.2,0,5.2-4,5.2-6.3c0-0.6-0.9-0.4-1.8-0.4
		c-7.1,0-5.8-5.4-14-5.4c-2.8,0-12.2,1.5-12.2,14.9C684.1,523,709,529.1,703.2,544.7z"/>
</g>
</svg>
